<mxfile host="app.diagrams.net" modified="2021-02-14T20:20:05.436Z" agent="5.0 (Macintosh; Intel Mac OS X 10_15_6) AppleWebKit/605.1.15 (KHTML, like Gecko) Version/14.0.3 Safari/605.1.15" etag="7SzqvMvkRIPCOK0x-y_F" version="14.3.1" type="github">
  <diagram id="wC22xzyAH0aHUWwy6t-B" name="Page-1">
    <mxGraphModel dx="1700" dy="1132" grid="1" gridSize="10" guides="1" tooltips="1" connect="1" arrows="1" fold="1" page="1" pageScale="1" pageWidth="827" pageHeight="1169" math="0" shadow="0">
      <root>
        <mxCell id="0" />
        <mxCell id="1" parent="0" />
        <mxCell id="EAnjrRREjHTNc9DK39wj-1" value="SortierRoboter" style="swimlane;fontStyle=1;align=center;verticalAlign=top;childLayout=stackLayout;horizontal=1;startSize=26;horizontalStack=0;resizeParent=1;resizeParentMax=0;resizeLast=0;collapsible=1;marginBottom=0;fillColor=#e1d5e7;strokeColor=#9673a6;" vertex="1" parent="1">
          <mxGeometry x="159" y="80" width="510" height="160" as="geometry" />
        </mxCell>
        <mxCell id="EAnjrRREjHTNc9DK39wj-2" value="+ algorithmus : Sortieralgorithmus = KotlinSortierer&#xa;+ wartezeit : TimeSpan= 10.milliseconds" style="text;strokeColor=none;fillColor=none;align=left;verticalAlign=top;spacingLeft=4;spacingRight=4;overflow=hidden;rotatable=0;points=[[0,0.5],[1,0.5]];portConstraint=eastwest;" vertex="1" parent="EAnjrRREjHTNc9DK39wj-1">
          <mxGeometry y="26" width="510" height="44" as="geometry" />
        </mxCell>
        <mxCell id="EAnjrRREjHTNc9DK39wj-3" value="" style="line;strokeWidth=1;fillColor=none;align=left;verticalAlign=middle;spacingTop=-1;spacingLeft=3;spacingRight=3;rotatable=0;labelPosition=right;points=[];portConstraint=eastwest;" vertex="1" parent="EAnjrRREjHTNc9DK39wj-1">
          <mxGeometry y="70" width="510" height="8" as="geometry" />
        </mxCell>
        <mxCell id="EAnjrRREjHTNc9DK39wj-4" value="+ initialisieren(stage : Stage)&#xa;+ positionenAktualisieren()&#xa;+ sortieren()&#xa;+ playSound(rect : SolidRect)&#xa;+ arrayErzeugen(laenge: Int, untereZufallsGrenze: Int = 10, obereZufallsGrenze: Int = 100)&#xa;&#xa;&#xa;" style="text;strokeColor=none;fillColor=none;align=left;verticalAlign=top;spacingLeft=4;spacingRight=4;overflow=hidden;rotatable=0;points=[[0,0.5],[1,0.5]];portConstraint=eastwest;" vertex="1" parent="EAnjrRREjHTNc9DK39wj-1">
          <mxGeometry y="78" width="510" height="82" as="geometry" />
        </mxCell>
        <mxCell id="EAnjrRREjHTNc9DK39wj-11" style="edgeStyle=orthogonalEdgeStyle;rounded=0;orthogonalLoop=1;jettySize=auto;html=1;exitX=0.5;exitY=0;exitDx=0;exitDy=0;endArrow=none;endFill=0;" edge="1" parent="1" source="EAnjrRREjHTNc9DK39wj-5" target="EAnjrRREjHTNc9DK39wj-4">
          <mxGeometry relative="1" as="geometry" />
        </mxCell>
        <mxCell id="EAnjrRREjHTNc9DK39wj-5" value="Sortieralgorithmus&#xa;&lt;&lt;abstract&gt;&gt;" style="swimlane;fontStyle=1;align=center;verticalAlign=top;childLayout=stackLayout;horizontal=1;startSize=40;horizontalStack=0;resizeParent=1;resizeParentMax=0;resizeLast=0;collapsible=1;marginBottom=0;fillColor=#d5e8d4;strokeColor=#82b366;" vertex="1" parent="1">
          <mxGeometry x="304" y="330" width="220" height="100" as="geometry" />
        </mxCell>
        <mxCell id="EAnjrRREjHTNc9DK39wj-6" value="+ name: String" style="text;strokeColor=none;fillColor=none;align=left;verticalAlign=top;spacingLeft=4;spacingRight=4;overflow=hidden;rotatable=0;points=[[0,0.5],[1,0.5]];portConstraint=eastwest;" vertex="1" parent="EAnjrRREjHTNc9DK39wj-5">
          <mxGeometry y="40" width="220" height="26" as="geometry" />
        </mxCell>
        <mxCell id="EAnjrRREjHTNc9DK39wj-7" value="" style="line;strokeWidth=1;fillColor=none;align=left;verticalAlign=middle;spacingTop=-1;spacingLeft=3;spacingRight=3;rotatable=0;labelPosition=right;points=[];portConstraint=eastwest;" vertex="1" parent="EAnjrRREjHTNc9DK39wj-5">
          <mxGeometry y="66" width="220" height="8" as="geometry" />
        </mxCell>
        <mxCell id="EAnjrRREjHTNc9DK39wj-8" value="+ sortieren(array: Array&lt;SolidRect&gt;)" style="text;strokeColor=none;fillColor=none;align=left;verticalAlign=top;spacingLeft=4;spacingRight=4;overflow=hidden;rotatable=0;points=[[0,0.5],[1,0.5]];portConstraint=eastwest;" vertex="1" parent="EAnjrRREjHTNc9DK39wj-5">
          <mxGeometry y="74" width="220" height="26" as="geometry" />
        </mxCell>
      </root>
    </mxGraphModel>
  </diagram>
</mxfile>
